<svg width="47" height="37" viewBox="0 0 47 37" fill="none" xmlns="http://www.w3.org/2000/svg">
<path d="M39.4692 3.06892C36.5149 1.63829 33.3161 0.599939 29.9841 0C29.9255 0.000866923 29.8696 0.0257484 29.8286 0.0692242C29.4288 0.830685 28.9623 1.82289 28.6513 2.58435C25.1171 2.03091 21.523 2.03091 17.9888 2.58435C17.6778 1.79982 17.2114 0.830685 16.7893 0.0692242C16.7671 0.0230751 16.7004 0 16.6338 0C13.3018 0.599939 10.1253 1.63829 7.14866 3.06892C7.12644 3.06892 7.10423 3.09199 7.08202 3.11507C1.03995 12.5064 -0.626055 21.6439 0.195843 30.6892C0.195843 30.7353 0.218056 30.7815 0.262483 30.8046C4.26091 33.8504 8.10384 35.6964 11.9023 36.9193C11.969 36.9424 12.0356 36.9193 12.0578 36.8732C12.9464 35.6041 13.7461 34.2657 14.4347 32.8582C14.4791 32.7659 14.4347 32.6736 14.3458 32.6505C13.0797 32.1429 11.8801 31.5429 10.7028 30.8507C10.614 30.8046 10.614 30.6661 10.6806 30.5969C10.9249 30.4123 11.1693 30.2046 11.4136 30.02C11.4581 29.9739 11.5247 29.9739 11.5691 29.9969C19.2106 33.6196 27.4518 33.6196 35.0043 29.9969C35.0488 29.9739 35.1154 29.9739 35.1598 30.02C35.4042 30.2277 35.6485 30.4123 35.8929 30.62C35.9817 30.6892 35.9817 30.8276 35.8707 30.8738C34.7156 31.5891 33.4938 32.1659 32.2277 32.6736C32.1388 32.6967 32.1166 32.812 32.1388 32.8813C32.8496 34.2888 33.6493 35.6271 34.5156 36.8962C34.5823 36.9193 34.6489 36.9424 34.7156 36.9193C38.5363 35.6964 42.3792 33.8504 46.3776 30.8046C46.4221 30.7815 46.4443 30.7353 46.4443 30.6892C47.4217 20.2364 44.8227 11.1681 39.5581 3.11507C39.5359 3.09199 39.5137 3.06892 39.4692 3.06892ZM15.5898 25.1744C13.3018 25.1744 11.3914 22.9823 11.3914 20.2825C11.3914 17.5828 13.2574 15.3907 15.5898 15.3907C17.9444 15.3907 19.8103 17.6059 19.7881 20.2825C19.7881 22.9823 17.9222 25.1744 15.5898 25.1744ZM31.0726 25.1744C28.7846 25.1744 26.8742 22.9823 26.8742 20.2825C26.8742 17.5828 28.7401 15.3907 31.0726 15.3907C33.4272 15.3907 35.2931 17.6059 35.2709 20.2825C35.2709 22.9823 33.4272 25.1744 31.0726 25.1744Z" fill="white"/>
</svg>
