<svg width="416" height="505" viewBox="0 0 416 505" fill="none" xmlns="http://www.w3.org/2000/svg">
<path d="M208 502.383C205.25 502.383 202.73 501.933 202.4 501.383C202.02 500.763 204.1 500.383 207.9 500.383C211.63 500.383 213.81 500.773 213.5 501.383C213.23 501.933 210.75 502.383 208 502.383Z" fill="#318F3A"/>
<path d="M358.058 455.603C343.518 455.753 331.948 455.543 332.358 455.133C332.768 454.723 345.788 454.453 361.298 454.533C376.808 454.613 388.368 454.823 386.998 454.993C385.618 455.173 372.598 455.443 358.058 455.603Z" fill="#318F3A"/>
<path d="M392.999 450.883C392.439 452.183 392.149 449.623 392.169 443.573C392.189 437.633 392.559 434.493 393.199 434.883C393.749 435.223 394.129 438.513 394.029 442.193C393.939 445.873 393.469 449.783 392.999 450.883Z" fill="#318F3A"/>
<path d="M25.2483 361.893C24.0083 361.063 23.0683 359.883 23.1583 359.273C23.2483 358.583 23.9083 358.483 24.9083 359.013C25.7783 359.483 33.2483 360.013 41.4983 360.193C51.2383 360.403 56.9483 360.923 57.7883 361.693C58.8083 362.633 59.0283 369.323 58.5283 422.883L58.2183 394.383C57.9983 373.863 57.5783 365.523 56.7083 364.593C55.8283 363.643 51.7183 363.313 41.4983 363.343C30.6183 363.383 26.9983 363.063 25.2483 361.893Z" fill="#CBE596"/>
<path d="M14.66 343.133C11.55 337.773 9 332.933 9 332.383C9 331.833 9.34 331.363 9.75 331.343C10.16 331.313 12.83 335.253 15.67 340.093C18.52 344.923 21.16 350.233 21.55 351.883C22.01 353.823 21.92 354.533 21.29 353.883C20.76 353.333 17.78 348.493 14.66 343.133Z" fill="#CBE596"/>
<path d="M409.919 320.883C411.769 315.383 413.329 308.973 413.389 306.633C413.449 304.293 413.949 302.533 414.499 302.713C415.049 302.893 415.639 304.573 415.799 306.463C415.969 308.343 414.959 313.823 413.549 318.633C412.149 323.443 410.049 329.293 408.889 331.633C407.719 333.973 404.459 339.683 396.499 352.753L395.499 453.333L393.219 455.603C390.989 457.843 390.459 457.893 362.219 458.383C345.699 458.673 332.839 459.303 331.949 459.883C331.089 460.433 326.139 463.873 320.949 467.523C313.669 472.643 309.549 474.763 302.999 476.743C298.329 478.163 276.499 484.813 254.499 491.523C231.459 498.553 212.169 503.903 208.999 504.133C204.229 504.473 198.579 503.043 166.499 493.373C146.149 487.233 123.879 480.553 116.999 478.513C110.129 476.483 103.079 473.933 101.359 472.853C99.6292 471.773 94.0292 466.383 88.9292 460.883C83.8192 455.383 74.9992 445.593 69.3192 439.133C62.8792 431.793 58.9892 426.543 58.9692 425.133C58.9592 423.893 59.1192 423.113 59.3292 423.383C59.5392 423.653 62.8092 427.503 66.6092 431.943C70.3992 436.373 79.4392 446.493 86.7092 454.443C93.9792 462.383 100.949 469.503 102.209 470.273C103.469 471.033 118.229 475.833 134.999 480.923C151.779 486.023 173.599 492.543 183.499 495.413C193.399 498.273 201.949 501.023 202.499 501.523C203.049 502.013 205.549 502.413 208.049 502.403C210.549 502.393 213.029 501.983 213.549 501.493C214.069 501.003 228.899 496.233 246.499 490.893C264.099 485.553 285.249 479.163 293.499 476.693C301.749 474.223 309.629 471.613 310.999 470.893C312.379 470.183 317.769 466.513 332.499 455.913L361.219 455.403C387.059 454.933 390.109 454.703 391.719 453.093C393.019 451.793 393.589 449.343 393.839 444.093C394.029 439.943 393.699 436.033 393.049 434.883C392.249 433.463 391.999 421.333 392.499 353.883L399.529 342.383C404.189 334.763 407.689 327.513 409.919 320.883Z" fill="#CBE596"/>
<path d="M9.75 302.563C2.44 302.803 0 302.573 0 301.633C0 300.713 2.81 300.383 10.7 300.383C17.34 300.383 21.04 300.733 20.45 301.313C19.93 301.833 15.11 302.393 9.75 302.563Z" fill="#318F3A"/>
<path d="M383.25 201.383C382.1 196.163 380.83 190.643 380.44 189.133C379.96 187.323 380.11 186.383 380.86 186.383C381.49 186.383 382.43 187.393 382.95 188.633C383.47 189.873 384.57 194.033 385.39 197.883C386.21 201.733 387.42 209.833 388.07 215.883C388.8 222.663 389.04 233.793 388.69 244.883C388.38 254.783 387.41 266.933 386.53 271.883C385.65 276.833 383.83 284.483 382.49 288.883C381.14 293.283 380.03 297.673 380.02 298.633C380.01 299.593 379.32 300.383 378.5 300.383C377.68 300.383 377 299.933 377 299.383C377 298.833 378.14 294.443 379.54 289.633C380.94 284.823 382.82 276.613 383.73 271.383C384.99 264.193 385.38 255.683 385.37 236.383C385.36 214.213 385.08 209.643 383.25 201.383Z" fill="#CBE596"/>
<path d="M186.98 26.383C195.94 14.003 204.22 2.86302 205.36 1.61302C207.02 -0.206982 207.67 -0.406982 208.62 0.613018C209.28 1.31302 215.37 9.36302 222.16 18.503C228.94 27.643 237.31 39.003 247 52.383L256.75 55.533C262.11 57.263 270.55 60.453 275.5 62.623C280.45 64.793 288.55 68.943 293.5 71.853C298.45 74.763 306.21 79.903 310.75 83.263C315.29 86.633 322.88 93.093 327.62 97.633C332.36 102.173 338.96 109.263 342.29 113.383C345.62 117.513 351.14 125.163 354.57 130.383C357.99 135.603 363.16 144.603 366.05 150.383C368.93 156.163 372.85 164.933 374.75 169.883C376.64 174.833 379.26 183.603 380.57 189.383C381.87 195.163 383.68 205.513 384.59 212.383C385.87 222.033 386.11 229.213 385.67 243.883C385.35 254.333 384.41 266.933 383.58 271.883C382.75 276.833 380.93 284.823 379.54 289.633C378.14 294.443 377 298.833 377 299.383C377 300.013 383.83 300.383 414 300.383L413.6 305.633C413.38 308.523 411.7 315.383 409.88 320.883C407.65 327.613 404.26 334.643 392.5 353.883L391.5 453.883L333.5 454.883L325 461.243C320.32 464.743 314.7 468.643 312.5 469.923C310.3 471.193 300.17 474.723 290 477.773C279.82 480.823 258.9 487.163 243.5 491.843C219.1 499.273 214.54 500.373 208 500.383C201.85 500.393 197.16 499.423 182 495.003C171.82 492.033 150.67 485.733 135 480.993C119.32 476.253 105 471.593 103.16 470.633C101.33 469.673 93.9 462.383 86.66 454.443C79.42 446.503 70.22 436.153 58.93 422.883L58.98 392.883C59.02 369.953 58.73 362.583 57.77 361.613C56.86 360.713 52.44 360.353 42.25 360.363C32.81 360.373 27.16 359.963 25.52 359.133C23.78 358.263 22.7 356.523 21.94 353.383C21.33 350.903 17.74 343.483 13.96 336.883C10.18 330.283 5.98 321.513 4.62 317.383C3.26 313.263 1.89 308.193 1 302.383H10.5C15.83 302.383 20.22 301.943 20.5 301.383C20.77 300.833 23.92 300.383 27.5 300.383C31.07 300.383 33.99 300.043 33.98 299.633C33.98 299.223 32.6 294.613 30.92 289.383C29.24 284.153 27.02 274.933 25.99 268.883C24.95 262.833 23.81 252.033 23.44 244.883C23.05 237.233 23.25 226.333 23.94 218.383C24.58 210.953 25.93 201.063 26.94 196.383C27.96 191.703 30.5 182.703 32.6 176.383C34.7 170.063 39.66 158.353 43.62 150.383C47.59 142.413 54.13 131.083 58.17 125.213C62.2 119.343 68.87 110.813 73 106.263C77.12 101.723 84.55 94.633 89.5 90.513C94.45 86.393 102.1 80.663 106.5 77.783C110.9 74.903 119.67 70.053 126 67.003C132.32 63.963 142.22 59.893 148 57.973C153.77 56.053 160.3 54.213 162.5 53.893C164.74 53.573 167.42 52.343 168.58 51.103C169.73 49.883 178.01 38.763 186.98 26.383Z" fill="#031B23"/>
<path d="M249.309 371.943C249.159 365.933 249.249 360.423 249.499 359.693C249.829 358.723 252.229 358.433 267.499 358.793L249.999 359.383L249.579 382.883L249.309 371.943Z" fill="#CBE596"/>
<path d="M210.749 396.883C210.589 407.883 210.449 399.333 210.449 377.883C210.449 356.433 210.589 347.433 210.749 357.883C210.909 368.333 210.909 385.883 210.749 396.883Z" fill="#CBE596"/>
<path d="M295.529 343.913L307.499 332.153L319.469 320.383H355.229C374.909 320.383 390.979 320.723 390.959 321.133C390.929 321.543 387.249 325.713 374.649 338.883L316.499 339.883L315.999 405.383H353.999V383.383H335.999V359.383H372.999V424.383H295.999L295.529 343.913Z" fill="#FEFEFE"/>
<path d="M210.999 338.383L220.749 329.413L230.499 320.443L297.319 320.383L278.589 339.353L230.499 339.883V404.883H267.499L267.999 383.383H249.999V359.383H286.999V424.383H210.999V338.383Z" fill="#FEFEFE"/>
<path d="M33.0391 330.633C28.6691 325.823 25.0691 321.543 25.0391 321.133C25.0191 320.723 65.0491 320.383 202.999 320.383L200.249 323.803C198.739 325.683 195.249 329.933 187.499 339.273L171.999 339.383V404.383H186.999L195.009 413.633C199.419 418.723 203.019 423.223 203.009 423.633C202.999 424.043 184.549 424.383 161.999 424.383C139.449 424.383 120.999 424.163 120.999 423.883C120.999 423.613 124.599 419.113 136.999 404.383H151.999L151.499 339.883L139.999 339.563C133.669 339.383 121.639 339.503 97.9991 340.383V387.383C97.9991 413.233 97.6591 434.393 97.2491 434.413C96.8391 434.423 92.3391 429.703 77.9991 413.383L77.4991 339.883L40.9991 339.383L33.0391 330.633Z" fill="#FEFEFE"/>
<path d="M41.0715 254.633C40.1015 245.383 40.1715 244.183 41.7415 242.343C43.2315 240.613 44.4715 240.343 56.5015 240.883L56.8015 244.383C56.9615 246.313 57.7315 251.703 59.9315 264.883L56.5115 268.883C54.6415 271.083 51.5415 274.683 49.6415 276.883C47.7415 279.083 45.9315 280.653 45.6215 280.383C45.3115 280.113 44.4015 276.503 43.6015 272.383C42.8015 268.253 41.6615 260.273 41.0715 254.633Z" fill="#7CC824"/>
<path d="M302.54 253.883C304.81 248.923 305.36 246.063 305.75 237.383L306.22 226.883L308.11 229.383C309.15 230.753 316.75 245.383 325 261.883C333.26 278.383 340.12 293.233 340.5 297.883H263.48L255.99 291.543C251.87 288.063 245.46 283.673 235 278.383L207.25 278.393C179.5 278.403 179.5 278.403 174 280.983C170.97 282.413 166.7 284.823 164.5 286.343C162.3 287.873 158.03 291.213 149.5 298.423L83.5 298.313L94.73 270.883L100.61 270.603C103.85 270.443 108.97 270.843 112 271.473C115.03 272.103 119.75 272.933 122.5 273.303C125.25 273.673 128.51 274.523 129.75 275.183C131.13 275.913 136.36 276.373 143.25 276.353C153.42 276.333 155.17 276.043 168.5 270.433L243.5 269.103L251.25 272.743C258.46 276.133 259.66 276.383 268.5 276.383C276.46 276.383 278.85 275.993 283.25 273.953C286.26 272.553 290.91 269.033 294.15 265.703C297.45 262.303 300.94 257.383 302.54 253.883Z" fill="#318F3A"/>
<path d="M241.64 205.433C244.19 202.163 247.23 199.303 248.39 199.073C249.55 198.843 253.54 198.593 257.25 198.523C261.17 198.443 264 198.803 264 199.383C264 199.933 262.09 200.383 259.75 200.393C257.41 200.403 253.83 200.683 251.79 201.013C248.77 201.513 247.26 202.703 243.54 207.503C239.19 213.133 238.81 213.383 234.5 213.383C232.02 213.383 230 212.933 230 212.383C230 211.833 231.58 211.383 233.5 211.383C236.59 211.383 237.55 210.683 241.64 205.433Z" fill="#CBE596"/>
<path d="M154.25 200.403C159.18 200.393 162.06 199.973 162.15 199.263C162.24 198.623 163.19 198.403 164.4 198.753C165.56 199.083 167.06 199.363 167.75 199.373C168.44 199.373 169.62 200.623 170.38 202.133C171.14 203.643 173.17 206.343 178 211.383H204C220.67 211.383 230 211.743 230 212.383C230 212.933 232.02 213.383 234.5 213.383C238.8 213.383 239.21 213.113 243.75 207.413C247.55 202.643 249.2 201.343 252 200.923C253.93 200.643 257.41 200.403 259.75 200.393C262.09 200.383 264 199.933 264 199.383C264 198.833 265.46 198.373 267.25 198.363C269.04 198.363 273.2 199.283 276.5 200.413C279.8 201.543 284.52 203.773 287 205.373C289.48 206.973 293.59 210.443 296.14 213.083C298.69 215.723 302.01 219.913 303.53 222.383C306.18 226.723 306.26 227.263 305.79 237.383C305.38 246.033 304.81 248.933 302.55 253.883C300.95 257.373 297.44 262.313 294.15 265.703C290.91 269.033 286.26 272.553 283.25 273.953C278.85 275.993 276.46 276.383 268.5 276.383C259.66 276.383 258.46 276.133 243.5 269.103L168.5 270.433L161.5 273.383C155.17 276.043 153.42 276.333 143.25 276.353C136.4 276.373 131.12 275.913 129.75 275.193C128.51 274.533 125.03 273.643 122 273.213C118.97 272.783 114.47 271.993 112 271.453C109.53 270.913 104.69 270.453 101.25 270.423C97.81 270.403 95 270.153 95 269.883C95 269.613 97.47 263.643 100.49 256.633C103.57 249.483 106.37 241.253 106.86 237.883C107.35 234.583 109.04 229.193 110.62 225.903C112.23 222.563 115.94 217.483 119.02 214.403C122.35 211.063 127.2 207.593 131.27 205.633C134.97 203.843 139.91 201.943 142.25 201.403C144.59 200.873 149.99 200.423 154.25 200.403Z" fill="#7CC824"/>
<path d="M258.858 256.583C258.768 254.143 259.458 252.653 261.518 250.833C263.078 249.453 265.548 248.383 267.148 248.383C268.978 248.383 271.068 249.453 272.998 251.383C275.468 253.853 275.898 254.963 275.458 257.633C275.158 259.423 274.148 261.683 273.208 262.663C272.028 263.893 270.028 264.443 266.748 264.413C262.958 264.393 261.698 263.933 260.488 262.133C259.658 260.893 258.928 258.403 258.858 256.583Z" fill="#031B23"/>
<path d="M191.928 235.953C191.888 235.173 192.598 233.823 193.498 232.953C194.808 231.693 197.678 231.383 207.818 231.363C216.738 231.353 220.878 231.723 221.768 232.613C222.458 233.313 223.008 234.563 222.988 235.383C222.968 236.203 222.168 237.683 221.218 238.663C219.748 240.193 217.718 240.443 207.248 240.413C197.728 240.393 194.668 240.053 193.498 238.883C192.678 238.063 191.968 236.743 191.928 235.953Z" fill="#031B23"/>
<path d="M277.048 237.333C277.068 235.513 278.058 233.313 279.498 231.833C281.058 230.243 283.068 229.373 285.198 229.343C287.018 229.313 289.528 230.103 290.778 231.093C292.048 232.083 293.308 234.433 293.618 236.383C294.028 238.943 293.658 240.553 292.238 242.383C291.178 243.763 288.888 245.223 287.148 245.633C285.108 246.123 283.038 245.903 281.248 245.023C279.738 244.273 278.158 242.923 277.748 242.023C277.338 241.123 277.018 239.013 277.048 237.333Z" fill="#031B23"/>
<path d="M240.898 236.953C240.828 234.323 241.448 233.043 243.558 231.453C245.068 230.313 247.588 229.383 249.148 229.383C250.978 229.383 253.068 230.453 254.998 232.383C256.648 234.033 257.998 236.063 257.998 236.883C257.998 237.703 257.318 239.733 256.498 241.383C255.568 243.243 253.758 244.773 251.748 245.413C249.518 246.123 247.638 246.123 245.748 245.413C244.238 244.843 242.548 243.483 241.998 242.383C241.448 241.283 240.958 238.843 240.898 236.953Z" fill="#031B23"/>
<path d="M259.018 218.583C259.058 216.523 259.988 214.373 261.498 212.833C263.158 211.143 265.008 210.383 267.448 210.383C270.168 210.383 271.578 211.083 273.498 213.383C274.878 215.033 276.018 217.393 276.028 218.633C276.048 219.873 275.148 222.123 274.028 223.633C272.358 225.893 271.238 226.383 267.748 226.363C264.718 226.343 262.848 225.703 261.218 224.113C259.718 222.643 258.968 220.763 259.018 218.583Z" fill="#031B23"/>
<path d="M139.078 219.583C139.088 215.353 139.568 213.803 141.498 211.833C143.068 210.243 145.058 209.373 147.198 209.353C149.018 209.333 151.738 210.233 153.248 211.353C155.718 213.173 155.998 213.993 155.998 219.383C155.998 223.383 156.498 225.883 157.498 226.883C158.528 227.913 161.058 228.383 165.498 228.383C169.068 228.383 172.898 228.833 173.998 229.383C175.098 229.933 176.448 231.963 176.998 233.883C177.808 236.703 177.648 238.013 176.198 240.633C174.448 243.793 174.188 243.893 166.948 244.193C161.638 244.413 158.988 244.983 157.718 246.193C156.408 247.433 155.948 249.343 155.998 253.383C156.048 257.423 155.528 259.613 154.028 261.633C152.358 263.893 151.238 264.383 147.748 264.363C144.718 264.343 142.848 263.703 141.218 262.113C139.358 260.283 138.948 258.803 138.948 253.883C138.948 249.553 138.468 247.383 137.218 246.103C135.878 244.703 133.918 244.323 128.248 244.353C121.828 244.383 120.828 244.123 119.488 242.133C118.658 240.893 117.988 238.423 117.988 236.633C117.998 234.533 118.868 232.493 120.448 230.883C122.548 228.753 123.828 228.383 129.198 228.353C133.778 228.343 135.988 227.863 137.278 226.603C138.548 225.383 139.068 223.343 139.078 219.583Z" fill="#031B23"/>
<path d="M129.059 203.683C132.599 201.923 137.299 200.053 139.499 199.533C141.699 199.013 147.659 198.543 152.749 198.483C158.319 198.423 161.999 198.783 161.999 199.383C161.999 199.963 158.729 200.393 154.249 200.403C149.989 200.423 144.589 200.873 142.249 201.403C139.909 201.943 134.969 203.843 131.269 205.633C127.199 207.593 122.349 211.063 119.019 214.403C115.929 217.493 112.239 222.553 110.629 225.903C109.049 229.193 107.349 234.583 106.849 237.883C106.349 241.183 103.479 249.733 100.479 256.883C97.4692 264.033 92.4192 276.183 83.4992 297.883L77.4992 298.153C74.1992 298.303 71.1792 298.083 70.7792 297.653C70.3892 297.233 72.2092 291.933 74.8392 285.883C77.4592 279.833 84.6892 265.203 90.9092 253.383C97.1192 241.563 104.569 228.283 107.469 223.883C110.369 219.483 114.959 213.853 117.679 211.383C120.399 208.903 125.519 205.443 129.059 203.683Z" fill="#CBE596"/>
<path d="M203 172.882C203.86 170.732 204.73 170.342 209.25 170.062C212.14 169.892 215.51 169.672 216.75 169.562C218.96 169.382 219 169.592 218.97 180.132C218.95 188.932 218.64 191.202 217.22 192.662C215.9 194.032 213.94 194.442 202 194.382V184.882C202 179.652 202.45 174.252 203 172.882Z" fill="#318F3A"/>
<path d="M329.25 148.402C330.57 148.412 333.14 146.752 335.45 144.402C337.62 142.192 339.76 140.382 340.2 140.382C340.64 140.382 343 143.872 345.45 148.132C347.89 152.392 351.43 159.252 353.32 163.382C355.2 167.502 358.18 174.932 359.92 179.882C361.67 184.832 364.23 194.502 365.61 201.382C367.17 209.172 368.34 219.162 368.7 227.882C369.05 236.172 368.8 246.572 368.09 253.382C367.43 259.702 366.35 267.582 365.69 270.882C364.99 274.432 363.98 276.882 363.23 276.882C362.53 276.882 359.25 273.502 355.94 269.382C350.33 262.402 349.95 261.602 350.45 257.882C350.75 255.682 351.28 246.452 351.62 237.382C352.11 224.492 351.89 218.582 350.6 210.382C349.69 204.602 347.79 196.062 346.38 191.382C344.97 186.702 342.33 179.282 340.52 174.882C338.71 170.482 334.91 162.832 332.09 157.882C329.26 152.932 326.96 148.772 326.97 148.632C326.99 148.492 328.01 148.392 329.25 148.402Z" fill="#318F3A"/>
<path d="M268.84 125.382C268.22 123.452 268.03 121.062 268.42 120.062C268.81 119.052 269.84 118.382 270.73 118.562C271.61 118.732 276.78 124.952 282.21 132.382C287.64 139.812 298.51 155.102 306.37 166.382C314.22 177.662 321.71 188.682 322.99 190.882C324.66 193.722 325.86 198.512 327.15 207.382C328.14 214.252 328.96 220.442 328.98 221.132C328.99 221.822 328.44 222.382 327.75 222.392C327.06 222.392 320.57 215.982 313.33 208.142C306.08 200.302 291.18 184.202 260.28 150.882L263.76 147.882C265.68 146.232 267.87 143.642 268.63 142.132C269.38 140.622 269.99 137.022 269.98 134.132C269.97 131.242 269.46 127.312 268.84 125.382Z" fill="#318F3A"/>
<path d="M195.781 148.333C195.631 112.933 195.841 105.583 197.001 104.583C197.771 103.923 198.761 103.383 199.201 103.383C199.641 103.383 200.001 123.633 200.001 148.383C200.001 173.133 199.661 193.393 199.251 193.403C198.841 193.413 197.931 192.843 197.231 192.153C196.261 191.173 195.921 181.143 195.781 148.333Z" fill="#CBE596"/>
<path d="M274.7 90.1326C273.77 86.4226 273.25 82.9326 273.55 82.3826C273.85 81.8326 274.64 81.3926 275.3 81.3926C275.96 81.4026 279.65 83.2826 283.5 85.5626C287.35 87.8426 294.77 92.9626 300 96.9426C305.23 100.913 313.75 108.603 318.95 114.023C324.14 119.443 331.03 127.483 340.1 139.883L335.8 144.143C333.05 146.873 330.6 148.413 329 148.413C327.07 148.423 325.47 146.983 322.02 142.153C319.55 138.703 313.25 131.433 308.02 125.993C302.78 120.553 295.12 113.533 291 110.393C286.87 107.243 281.9 102.923 279.95 100.783C277.39 97.9626 275.93 95.0026 274.7 90.1326Z" fill="#7CC824"/>
<path d="M110.502 95.6624C116.002 91.7224 125.222 86.0124 131.002 82.9724C136.782 79.9224 142.062 77.4124 142.752 77.4024C143.642 77.3924 143.312 79.3424 141.632 84.1324C140.322 87.8424 138.972 92.3424 138.632 94.1324C138.282 95.9224 136.992 98.0624 135.752 98.8924C134.512 99.7224 129.222 103.182 124.002 106.592C117.782 110.642 110.502 116.772 102.932 124.332C96.5615 130.682 89.0415 139.032 86.2115 142.882C83.3815 146.732 79.0515 153.252 76.5915 157.382C74.1315 161.502 70.3215 169.162 68.1215 174.382C65.9215 179.602 62.9615 188.162 61.5515 193.382C60.1415 198.602 58.3115 207.942 57.4915 214.132C56.6715 220.322 56.0015 228.752 56.0015 240.382H49.5015C44.6115 240.382 42.8815 240.752 42.5015 241.882C42.2215 242.702 41.4415 243.382 40.7515 243.382C39.7715 243.392 39.6515 240.042 40.2015 228.132C40.6215 218.982 41.7515 208.882 43.0215 202.882C44.2015 197.382 46.4515 188.832 48.0415 183.882C49.6215 178.932 52.9915 170.162 55.5215 164.382C58.0515 158.602 62.1415 150.502 64.6115 146.382C67.0815 142.252 72.1115 134.842 75.8015 129.902C79.4815 124.962 86.5515 116.842 91.5015 111.862C96.4515 106.882 105.002 99.5924 110.502 95.6624Z" fill="#CBE596"/>
<path d="M198.808 47.8833C203.498 40.7333 208.028 34.0833 208.868 33.1133C209.708 32.1333 210.688 31.6833 211.038 32.1133C211.388 32.5333 214.368 36.7133 217.658 41.3833C220.948 46.0633 226.728 54.3833 230.508 59.8833C234.288 65.3833 244.948 80.5733 254.188 93.6333C269.698 115.543 270.858 117.493 269.248 118.793C267.688 120.053 267.638 120.703 268.748 124.793C269.438 127.323 269.998 131.633 269.998 134.383C269.998 137.133 269.368 140.623 268.588 142.133C267.808 143.643 265.768 146.233 264.048 147.883C261.758 150.083 260.558 150.613 259.568 149.883C258.828 149.333 249.508 139.523 219.498 107.263L218.998 137.733C218.728 154.503 218.268 168.493 217.998 168.833C217.998 172.281 214.398 169.773 210.618 170.173C204.758 170.773 203.608 171.213 202.868 173.133C202.388 174.373 201.998 179.663 201.998 184.883C201.998 191.813 204.098 194.383 200.748 194.383C194.193 191.025 199.548 184.753 199.748 148.883C199.888 123.863 199.658 103.373 199.248 103.353C198.838 103.333 187.898 114.253 174.948 127.603C161.998 140.953 144.448 159.293 135.948 168.343C127.448 177.393 115.098 190.503 108.498 197.473C98.7384 207.793 96.3384 209.853 95.6284 208.523C94.9784 207.273 97.3684 203.383 105.568 192.383C111.508 184.413 128.098 163.333 142.438 145.553L145.139 142.201C158.776 125.272 173.842 106.567 188.038 88.8833L187.998 78.3833C187.978 72.6033 188.488 66.3133 189.128 64.3833C189.758 62.4633 194.118 55.0333 198.808 47.8833Z" fill="#7CC824"/>
<path d="M191.379 49.3828C196.339 42.5128 201.939 34.9728 203.809 32.6328C205.689 30.2928 207.619 28.3828 208.109 28.3828C208.599 28.3828 209.229 29.0528 209.499 29.8828C209.779 30.7328 205.809 37.5928 200.379 45.6328C195.089 53.4728 190.139 61.6828 189.359 63.8828C188.489 66.3828 187.969 71.8328 188.039 88.8828L178.269 101.053C172.899 107.743 156.769 127.763 142.439 145.553C128.099 163.333 111.569 184.293 105.689 192.133C98.0488 202.323 95.1388 206.953 95.4988 208.383C95.8688 209.863 94.1088 212.343 88.7488 217.903C84.7588 222.043 81.4188 225.303 81.3088 225.153C81.2088 225.003 82.9288 217.683 89.1688 192.883L97.2588 181.383C101.709 175.063 107.379 166.953 109.849 163.383C112.329 159.813 129.659 135.513 148.359 109.383C167.059 83.2628 186.419 56.2628 191.379 49.3828Z" fill="#CBE596"/>
<path d="M122.898 439.273V431.02H120.164V429.552H128.526V431.02H125.792V439.273H122.898Z" fill="#86B841"/>
<path d="M129.866 439.273V429.552H132.761V433.573H135.012V429.552H137.906V439.273H135.012V435.041H132.761V439.273H129.866Z" fill="#86B841"/>
<path d="M140.047 439.273V429.552H146.667V431.02H142.941V433.639H145.621V435.067H142.941V437.805H146.667V439.273H140.047Z" fill="#86B841"/>
<path d="M152.95 439.273V429.552H155.844V439.273H152.95Z" fill="#86B841"/>
<path d="M158.001 439.273V429.552H160.707L163.387 434.618L163.629 435.067H163.789V429.552H166.443V439.273H164.004L161.056 434.208L160.815 433.758H160.654V439.273H158.001Z" fill="#86B841"/>
<path d="M170.503 439.273V431.02H167.77V429.552H176.131V431.02H173.398V439.273H170.503Z" fill="#86B841"/>
<path d="M177.472 439.273V429.552H184.092V431.02H180.367V433.639H183.047V435.067H180.367V437.805H184.092V439.273H177.472Z" fill="#86B841"/>
<path d="M186.24 439.273V429.552H189.134C190.867 429.552 192.144 429.79 192.966 430.266C193.788 430.738 194.199 431.435 194.199 432.356C194.199 432.903 194.003 433.377 193.61 433.778C193.225 434.175 192.756 434.466 192.203 434.651L194.172 439.273H191.278L189.643 435.173H189.134V439.273H186.24ZM189.134 433.85C189.67 433.85 190.094 433.793 190.407 433.679C190.72 433.56 190.943 433.392 191.077 433.176C191.211 432.96 191.278 432.704 191.278 432.409C191.278 431.946 191.122 431.591 190.809 431.344C190.505 431.093 189.947 430.967 189.134 430.967V433.85Z" fill="#86B841"/>
<path d="M195.818 439.273V429.552H198.525L201.205 434.618L201.446 435.067H201.607V429.552H204.26V439.273H201.822L198.874 434.208L198.632 433.758H198.472V439.273H195.818Z" fill="#86B841"/>
<path d="M205.789 439.273L208.763 429.552H212.301L215.276 439.273H212.462L211.926 437.289H209.139L208.603 439.273H205.789ZM209.541 435.781H211.524L210.693 432.515L210.613 431.999H210.452L210.371 432.515L209.541 435.781Z" fill="#86B841"/>
<path d="M217.403 439.273V431.02H214.669V429.552H223.031V431.02H220.297V439.273H217.403Z" fill="#86B841"/>
<path d="M224.371 439.273V429.552H227.266V439.273H224.371Z" fill="#86B841"/>
<path d="M233.148 439.379C232.344 439.379 231.651 439.286 231.071 439.101C230.499 438.916 230.057 438.665 229.744 438.347C229.44 438.03 229.289 437.673 229.289 437.276V431.549C229.289 431.148 229.44 430.791 229.744 430.478C230.057 430.16 230.499 429.909 231.071 429.724C231.651 429.539 232.344 429.446 233.148 429.446C233.952 429.446 234.64 429.539 235.211 429.724C235.792 429.909 236.234 430.16 236.538 430.478C236.851 430.795 237.007 431.152 237.007 431.549V437.276C237.007 437.673 236.851 438.03 236.538 438.347C236.234 438.665 235.792 438.916 235.211 439.101C234.64 439.286 233.952 439.379 233.148 439.379ZM233.148 437.99C233.505 437.99 233.755 437.917 233.898 437.772C234.041 437.622 234.112 437.457 234.112 437.276V431.549C234.112 431.368 234.037 431.205 233.885 431.06C233.733 430.91 233.487 430.835 233.148 430.835C232.817 430.835 232.572 430.91 232.411 431.06C232.259 431.205 232.183 431.368 232.183 431.549V437.276C232.183 437.457 232.259 437.622 232.411 437.772C232.563 437.917 232.808 437.99 233.148 437.99Z" fill="#86B841"/>
<path d="M239.027 439.273V429.552H241.734L244.414 434.618L244.655 435.067H244.816V429.552H247.469V439.273H245.031L242.083 434.208L241.841 433.758H241.681V439.273H239.027Z" fill="#86B841"/>
<path d="M248.998 439.273L251.973 429.552H255.51L258.485 439.273H255.671L255.135 437.289H252.348L251.812 439.273H248.998ZM252.75 435.781H254.733L253.902 432.515L253.822 431.999H253.661L253.58 432.515L252.75 435.781Z" fill="#86B841"/>
<path d="M260.017 439.273V429.552H262.911V437.951H266.744V439.273H260.017Z" fill="#86B841"/>
<path d="M275.325 439.379C274.53 439.379 273.883 439.286 273.382 439.101C272.882 438.916 272.511 438.665 272.27 438.347C272.038 438.03 271.922 437.673 271.922 437.276V431.549C271.922 431.157 272.078 430.802 272.391 430.485C272.704 430.167 273.15 429.916 273.731 429.731C274.311 429.541 274.995 429.446 275.781 429.446C276.38 429.446 276.916 429.501 277.389 429.612C277.871 429.717 278.278 429.867 278.608 430.061C278.948 430.255 279.202 430.48 279.372 430.736C279.551 430.987 279.64 431.258 279.64 431.549V433.044H276.746V431.549C276.746 431.355 276.674 431.188 276.531 431.047C276.388 430.906 276.138 430.835 275.781 430.835C275.433 430.835 275.182 430.91 275.031 431.06C274.888 431.205 274.816 431.368 274.816 431.549V437.395C274.816 437.585 274.892 437.752 275.044 437.898C275.196 438.039 275.442 438.109 275.781 438.109C276.138 438.109 276.388 438.039 276.531 437.898C276.674 437.752 276.746 437.585 276.746 437.395V435.768H275.593V434.432H279.64V439.273H277.925L277.577 438.744C277.326 438.942 277.005 439.099 276.612 439.214C276.228 439.324 275.799 439.379 275.325 439.379Z" fill="#86B841"/>
<path d="M281.189 439.273L284.163 429.552H287.701L290.676 439.273H287.862L287.326 437.289H284.539L284.003 439.273H281.189ZM284.941 435.781H286.924L286.093 432.515L286.013 431.999H285.852L285.771 432.515L284.941 435.781Z" fill="#86B841"/>
<path d="M292.208 439.273V429.552H295.879L297.461 434.591L297.595 435.107H297.648L297.782 434.591L299.363 429.552H303.035V439.273H300.355V432.753H300.194L300.087 433.163L298.372 439.273H296.871L295.156 433.163L295.049 432.753H294.888V439.273H292.208Z" fill="#86B841"/>
<path d="M305.189 439.273V429.552H311.808V431.02H308.083V433.639H310.763V435.067H308.083V437.805H311.808V439.273H305.189Z" fill="#86B841"/>
<path d="M317.44 439.379C316.645 439.379 315.984 439.315 315.457 439.187C314.93 439.055 314.515 438.865 314.211 438.618C313.907 438.372 313.688 438.074 313.554 437.726C313.429 437.377 313.367 436.985 313.367 436.549L316.208 436.416C316.208 436.628 316.221 436.833 316.248 437.031C316.283 437.225 316.342 437.402 316.422 437.56C316.511 437.715 316.636 437.838 316.797 437.931C316.967 438.023 317.181 438.07 317.44 438.07C317.869 438.07 318.173 437.973 318.351 437.779C318.53 437.58 318.619 437.342 318.619 437.064C318.619 436.787 318.472 436.498 318.177 436.198C317.883 435.898 317.53 435.614 317.119 435.345C316.422 434.887 315.81 434.461 315.283 434.069C314.765 433.676 314.358 433.291 314.064 432.911C313.778 432.532 313.635 432.136 313.635 431.721C313.635 431.395 313.72 431.095 313.889 430.822C314.059 430.544 314.305 430.304 314.626 430.101C314.957 429.894 315.354 429.733 315.819 429.618C316.283 429.504 316.815 429.446 317.414 429.446C318.155 429.446 318.78 429.508 319.289 429.631C319.808 429.755 320.223 429.931 320.536 430.16C320.857 430.39 321.09 430.663 321.232 430.98C321.384 431.293 321.46 431.642 321.46 432.025L318.619 432.158C318.619 431.994 318.602 431.831 318.566 431.668C318.539 431.501 318.486 431.349 318.405 431.212C318.325 431.075 318.209 430.965 318.057 430.881C317.905 430.798 317.708 430.756 317.467 430.756C317.092 430.756 316.833 430.835 316.69 430.994C316.547 431.148 316.476 431.368 316.476 431.655C316.476 432.025 316.677 432.382 317.079 432.726C317.481 433.07 318.021 433.471 318.7 433.93C319.513 434.472 320.174 434.97 320.683 435.424C321.201 435.878 321.46 436.381 321.46 436.932C321.46 437.28 321.384 437.604 321.232 437.904C321.081 438.2 320.839 438.458 320.509 438.678C320.187 438.898 319.772 439.07 319.263 439.194C318.762 439.317 318.155 439.379 317.44 439.379Z" fill="#86B841"/>
<path d="M330.416 439.379C329.621 439.379 328.974 439.286 328.473 439.101C327.973 438.916 327.602 438.665 327.361 438.347C327.129 438.03 327.013 437.673 327.013 437.276V431.549C327.013 431.157 327.169 430.802 327.482 430.485C327.794 430.167 328.241 429.916 328.822 429.731C329.402 429.541 330.086 429.446 330.872 429.446C331.47 429.446 332.006 429.501 332.48 429.612C332.962 429.717 333.369 429.867 333.699 430.061C334.039 430.255 334.293 430.48 334.463 430.736C334.642 430.987 334.731 431.258 334.731 431.549V433.044H331.837V431.549C331.837 431.355 331.765 431.188 331.622 431.047C331.479 430.906 331.229 430.835 330.872 430.835C330.523 430.835 330.273 430.91 330.121 431.06C329.979 431.205 329.907 431.368 329.907 431.549V437.395C329.907 437.585 329.983 437.752 330.135 437.898C330.287 438.039 330.532 438.109 330.872 438.109C331.229 438.109 331.479 438.039 331.622 437.898C331.765 437.752 331.837 437.585 331.837 437.395V435.768H330.684V434.432H334.731V439.273H333.016L332.667 438.744C332.417 438.942 332.096 439.099 331.703 439.214C331.319 439.324 330.89 439.379 330.416 439.379Z" fill="#86B841"/>
<path d="M336.883 439.273V429.552H339.777C341.51 429.552 342.787 429.79 343.609 430.266C344.431 430.738 344.842 431.435 344.842 432.356C344.842 432.903 344.646 433.377 344.252 433.778C343.868 434.175 343.399 434.466 342.845 434.651L344.815 439.273H341.921L340.286 435.173H339.777V439.273H336.883ZM339.777 433.85C340.313 433.85 340.737 433.793 341.05 433.679C341.363 433.56 341.586 433.392 341.72 433.176C341.854 432.96 341.921 432.704 341.921 432.409C341.921 431.946 341.765 431.591 341.452 431.344C341.148 431.093 340.59 430.967 339.777 430.967V433.85Z" fill="#86B841"/>
<path d="M350.186 439.379C349.382 439.379 348.69 439.286 348.109 439.101C347.538 438.916 347.096 438.665 346.783 438.347C346.479 438.03 346.327 437.673 346.327 437.276V431.549C346.327 431.148 346.479 430.791 346.783 430.478C347.096 430.16 347.538 429.909 348.109 429.724C348.69 429.539 349.382 429.446 350.186 429.446C350.99 429.446 351.678 429.539 352.25 429.724C352.831 429.909 353.273 430.16 353.577 430.478C353.889 430.795 354.046 431.152 354.046 431.549V437.276C354.046 437.673 353.889 438.03 353.577 438.347C353.273 438.665 352.831 438.916 352.25 439.101C351.678 439.286 350.99 439.379 350.186 439.379ZM350.186 437.99C350.544 437.99 350.794 437.917 350.937 437.772C351.08 437.622 351.151 437.457 351.151 437.276V431.549C351.151 431.368 351.075 431.205 350.923 431.06C350.772 430.91 350.526 430.835 350.186 430.835C349.856 430.835 349.61 430.91 349.449 431.06C349.298 431.205 349.222 431.368 349.222 431.549V437.276C349.222 437.457 349.298 437.622 349.449 437.772C349.601 437.917 349.847 437.99 350.186 437.99Z" fill="#86B841"/>
<path d="M359.925 439.379C359.112 439.379 358.416 439.286 357.835 439.101C357.263 438.916 356.826 438.665 356.522 438.347C356.218 438.03 356.066 437.673 356.066 437.276V429.552H358.961V437.276C358.961 437.466 359.037 437.633 359.188 437.779C359.34 437.92 359.586 437.99 359.925 437.99C360.283 437.99 360.533 437.92 360.676 437.779C360.819 437.633 360.89 437.466 360.89 437.276V429.552H363.785V437.276C363.785 437.673 363.628 438.03 363.316 438.347C363.012 438.665 362.57 438.916 361.989 439.101C361.417 439.286 360.729 439.379 359.925 439.379Z" fill="#86B841"/>
<path d="M365.933 439.273V429.552H368.827C369.926 429.552 370.842 429.671 371.574 429.909C372.316 430.147 372.87 430.485 373.236 430.921C373.602 431.357 373.785 431.871 373.785 432.462C373.785 433.053 373.593 433.562 373.209 433.989C372.825 434.417 372.262 434.752 371.521 434.995C370.788 435.233 369.89 435.363 368.827 435.385V439.273H365.933ZM368.827 433.93C369.336 433.93 369.738 433.881 370.033 433.784C370.328 433.683 370.538 433.524 370.663 433.308C370.797 433.092 370.864 432.814 370.864 432.475C370.864 432.131 370.797 431.851 370.663 431.635C370.538 431.419 370.324 431.26 370.02 431.159C369.725 431.058 369.327 431.007 368.827 431.007V433.93Z" fill="#86B841"/>
</svg>
